# xmcd
#
# Track frame offsets: 
#        150
#        2163
#        15994
#        31993
#        47623
#        60774
#        72505
#        89762
#        98525
#        112162
#        125877
#        145503
#        156710
#        174594
#
# Disc length: 2554 seconds
#
# Revision: 0
# Processed by: cddbd v1.5.2PL0 Copyright (c) Steve Scherf et al.
# Submitted via: ExactAudioCopy v0.99pb3
#
DISCID=ba09f80e
DTITLE=Everett Lilly - Everett Lilly and Everybody and Their Brother
DYEAR=2008
DGENRE=Bluegrass
TTITLE0=Intro to Get In Line Brother
TTITLE1=Get In Line Brother
TTITLE2=Soldier's Joy
TTITLE3=I'll Break Out Again Tonight
TTITLE4=Waves On The Sea
TTITLE5=I Wonder Where You Are Tonight
TTITLE6=Over Yonder's Hill
TTITLE7=Will You Find Me Worthy?
TTITLE8=No More The Moon Shines On Lorena
TTITLE9=Savannah's Not in Georgia
TTITLE10=New River Train
TTITLE11=Long Journey Home
TTITLE12=Cyclone Of Ryecove
TTITLE13=He Knew Me When He Was Hanging On The Cross
EXTD=
EXTT0=
EXTT1=
EXTT2=
EXTT3=
EXTT4=
EXTT5=
EXTT6=
EXTT7=
EXTT8=
EXTT9=
EXTT10=
EXTT11=
EXTT12=
EXTT13=
PLAYORDER=
